<svg width="19" height="19" viewBox="0 0 19 19" fill="none" xmlns="http://www.w3.org/2000/svg">
<path d="M4.63514 4.51975V13.4081C4.63514 14.2518 4.63514 14.6733 4.80357 14.9956C4.95172 15.2791 5.18795 15.51 5.47871 15.6544C5.80895 15.8185 6.24147 15.8185 7.10523 15.8185H11.4368C12.3006 15.8185 12.7325 15.8185 13.0627 15.6544C13.3535 15.51 13.5905 15.2791 13.7387 14.9956C13.9069 14.6737 13.9069 14.2525 13.9069 13.4104V4.51975M4.63514 4.51975H6.18044M4.63514 4.51975H3.08984M6.18044 4.51975H12.3616M6.18044 4.51975C6.18044 3.81781 6.18044 3.46702 6.29806 3.19017C6.4549 2.82103 6.75553 2.52758 7.13417 2.37468C7.41815 2.26001 7.77836 2.26001 8.49838 2.26001H10.0437C10.7637 2.26001 11.1237 2.26001 11.4077 2.37468C11.7863 2.52758 12.0871 2.82103 12.2439 3.19017C12.3615 3.46702 12.3616 3.81781 12.3616 4.51975M12.3616 4.51975H13.9069M13.9069 4.51975H15.4522" stroke="#E65D5D" stroke-width="1.28" stroke-linecap="round" stroke-linejoin="round"/>
</svg>
