<svg width="19" height="19" viewBox="0 0 19 19" fill="none" xmlns="http://www.w3.org/2000/svg">
<path d="M3.08984 15.0651H15.4522M3.08984 15.0651V12.0521L9.27103 6.02613M3.08984 15.0651L6.18044 15.0651L12.3616 9.03911M9.27103 6.02613L11.4875 3.86533L11.4888 3.86405C11.7939 3.56661 11.9467 3.41762 12.1229 3.36182C12.2781 3.31266 12.4452 3.31266 12.6004 3.36182C12.7765 3.41758 12.9291 3.5664 13.2338 3.86342L14.578 5.17392C14.884 5.47221 15.0371 5.62143 15.0944 5.79342C15.1448 5.9447 15.1448 6.10766 15.0944 6.25895C15.0371 6.43081 14.8843 6.57981 14.5787 6.87768L14.5781 6.87832L12.3616 9.03911M9.27103 6.02613L12.3616 9.03911" stroke="#275765" stroke-width="1.28" stroke-linecap="round" stroke-linejoin="round"/>
</svg>
