<svg width="22" height="22" viewBox="0 0 22 22" fill="none" xmlns="http://www.w3.org/2000/svg">
<path d="M3.66644 3.6665L18.3331 18.3332M15.1248 15.3594C13.8849 16.0273 12.4835 16.4997 10.9998 16.4997C7.76335 16.4997 4.91893 14.252 3.28778 12.6304C2.85722 12.2024 2.64197 11.9884 2.50495 11.5683C2.40722 11.2687 2.40719 10.7309 2.50495 10.4313C2.64202 10.0112 2.85771 9.79667 3.28913 9.36786C4.11127 8.5507 5.24139 7.5748 6.57439 6.8077M17.8748 13.4138C18.1801 13.1453 18.4597 12.8811 18.7106 12.6318L18.7132 12.629C19.1428 12.202 19.3582 11.9879 19.495 11.5687C19.5927 11.2691 19.5925 10.7311 19.4948 10.4315C19.3578 10.0115 19.1423 9.79694 18.712 9.36919C17.0809 7.74758 14.2362 5.49984 10.9998 5.49984C10.6904 5.49984 10.3846 5.52038 10.0831 5.55894M12.2124 12.3748C11.8893 12.6601 11.4647 12.8332 10.9998 12.8332C9.98726 12.8332 9.16644 12.0124 9.16644 10.9998C9.16644 10.5053 9.36226 10.0567 9.68058 9.72689" stroke="#323D63" stroke-width="1.20609" stroke-linecap="round" stroke-linejoin="round"/>
</svg>
