<svg width="22" height="22" viewBox="0 0 22 22" fill="none" xmlns="http://www.w3.org/2000/svg">
<path d="M3.28778 12.6306C4.91893 14.2522 7.76361 16.4999 11 16.4999C14.2365 16.4999 17.0806 14.2522 18.7118 12.6306C19.142 12.2029 19.3578 11.9883 19.4948 11.5684C19.5925 11.2688 19.5925 10.7312 19.4948 10.4316C19.3578 10.0117 19.142 9.79706 18.7118 9.36935C17.0806 7.74774 14.2365 5.5 11 5.5C7.76361 5.5 4.91893 7.74774 3.28778 9.36935C2.85725 9.79736 2.64197 10.0115 2.50494 10.4316C2.40721 10.7312 2.40721 11.2688 2.50494 11.5684C2.64197 11.9885 2.85725 12.2026 3.28778 12.6306Z" stroke="#323D63" stroke-width="1.20609" stroke-linecap="round" stroke-linejoin="round"/>
<path d="M9.16654 11C9.16654 12.0125 9.98736 12.8333 10.9999 12.8333C12.0124 12.8333 12.8332 12.0125 12.8332 11C12.8332 9.98748 12.0124 9.16667 10.9999 9.16667C9.98736 9.16667 9.16654 9.98748 9.16654 11Z" stroke="#323D63" stroke-width="1.20609" stroke-linecap="round" stroke-linejoin="round"/>
</svg>
